<svg xmlns="http://www.w3.org/2000/svg" viewBox="0 0 512 512">
  <path d="M259 72c96 0 176 47 199 112 19 54-5 113-61 152-44 31-106 48-177 48h-32l-77 57c-9 7-22 1-22-11l3-68C43 331 16 286 16 235 16 145 125 72 259 72Zm0 40C148 112 56 168 56 235c0 36 27 69 74 91 7 3 11 10 11 17l-2 41 31-23c5-4 10-6 16-6h34c104 0 193-53 203-122 10-70-65-121-164-121Z"/>
  <path d="M140 195h178a20 20 0 1 1 0 24H140a20 20 0 1 1 0-24Zm44 82h154a20 20 0 1 1 0 24H184a20 20 0 1 1 0-24Z"/>
  <path d="M119 161c36-47 104-74 190-78 81-4 146 15 181 52 22 24 25 52 8 76-27 39-109 62-224 62-103 0-191-21-214-51-13-16-8-36 14-51 11-8 27-11 45-10Zm349-88 16 34 34 16-34 16-16 34-16-34-34-16 34-16 16-34Z"/>
</svg>
